# xmcd
#
# Track frame offsets:
#	150
#	11137
#	21992
#	33790
#	41785
#	55150
#	69182
#	78405
#	91457
#	100995
#	112585
#	124010
#
# Disc length: 1785 seconds
#
# Revision: 1
# Processed by: cddbd v1.5.1PL0 Copyright (c) Steve Scherf et al.
# Submitted via: audiograbber 1.83.01
#
DISCID=8e06f70c
DTITLE=Sparks, Larry - Christmas In The Hills
DYEAR=1997
DGENRE=Bluegrass
TTITLE0=Christmas Time 's A Coming
TTITLE1=The Birthday Of Our King
TTITLE2=White Christmas
TTITLE3=Christmas In The Mountains
TTITLE4=Beautiful Star Of Bethlehem
TTITLE5=Away In A Manger
TTITLE6=Christmas Is Near
TTITLE7=Blue Christmas
TTITLE8=Joy To The World
TTITLE9=Christmas Memories
TTITLE10=Go Tell It On The Mountain
TTITLE11=It's Christmas TIme
EXTD=
EXTT0=
EXTT1=
EXTT2=
EXTT3=
EXTT4=
EXTT5=
EXTT6=
EXTT7=
EXTT8=
EXTT9=
EXTT10=
EXTT11=
PLAYORDER=
